<svg data-v-fde0c5aa="" xmlns="http://www.w3.org/2000/svg" viewBox="0 0 300 300" class="iconLeft"><!----><defs data-v-fde0c5aa=""><!----></defs><rect data-v-fde0c5aa="" fill="#0B173D" x="0" y="0" width="300px" height="300px" class="logo-background-square"></rect><defs data-v-fde0c5aa=""><!----></defs><g data-v-fde0c5aa="" id="e51f8e3c-e93e-4a42-b2fc-195f7e6bf85e" fill="#D1A103" transform="matrix(4.519881461627657,0,0,4.519881461627657,112.34649154509063,125.47964355560063)"><path d="M0.35 0.43L0.35 0.67C0.97 0.67 1.16 1.50 1.16 2.37L1.16 8.37C1.16 9.32 0.95 10.05 0.35 10.05L0.35 10.29L4.40 10.29L4.40 10.05C3.79 10.05 3.19 9.95 3.19 8.37L3.19 5.45L3.68 5.45C3.68 5.45 5.84 5.39 6.09 6.89L6.33 6.89L6.33 3.74L6.09 3.74C5.84 5.24 3.68 5.18 3.68 5.18L3.19 5.18L3.19 0.67L3.68 0.67C3.68 0.67 7.48 0.55 7.97 3.09L8.20 3.09L8.20 0.43ZM11.23 1.62C11.23 1.09 10.79 0.67 10.26 0.67C9.73 0.67 9.31 1.09 9.31 1.62C9.31 2.16 9.73 2.58 10.26 2.58C10.79 2.58 11.23 2.16 11.23 1.62ZM11.27 8.58L11.27 3.70L8.82 4.26L8.82 4.49C9.39 4.80 9.53 5.00 9.53 5.47L9.53 8.58C9.53 9.30 9.51 9.88 8.97 10.05L8.97 10.29L11.84 10.29L11.84 10.05C11.34 9.91 11.27 9.37 11.27 8.58ZM18.70 9.46L16.66 6.36L17.15 5.71C18.56 3.95 19.42 4.09 19.61 4.06L19.61 3.82L16.45 3.82L16.45 4.06C17.98 4.06 17.01 5.53 17.01 5.53L16.53 6.15L15.74 4.93C15.27 4.27 15.55 4.06 15.89 4.06L15.89 3.82L12.54 3.82L12.54 4.06C12.75 4.09 13.02 3.96 13.51 4.55L15.51 7.55L14.91 8.37C13.65 10.05 12.91 10.05 12.70 10.05L12.70 10.29L15.86 10.29L15.86 10.05C14.14 10.05 15.09 8.58 15.09 8.58L15.65 7.77L16.51 9.07C16.51 9.07 17.21 10.05 16.52 10.05L16.52 10.29L19.94 10.29L19.94 10.05C19.73 10.05 19.11 10.05 18.70 9.46ZM22.09 6.69C22.09 5.35 22.67 3.93 23.49 3.93C24.26 3.93 24.84 4.93 24.84 6.69ZM23.56 3.70C21.63 3.70 20.29 5.11 20.29 7.08C20.29 8.72 21.55 10.42 23.38 10.42C25.26 10.42 26.08 9.31 26.31 8.58L26.07 8.46C25.72 9.11 24.60 9.39 23.84 9.23C22.90 9.02 22.20 8.30 22.09 6.93L26.54 6.93C26.54 4.75 25.59 3.70 23.56 3.70ZM31.36 6.66L29.95 5.78C28.73 5.01 29.12 3.93 30.03 3.93C31.47 3.93 31.92 5.19 32.10 5.68L32.34 5.68L32.34 4.12C32.34 4.12 31.64 3.70 30.03 3.70C28.63 3.70 28.10 4.40 28.10 4.40C27.33 5.40 27.69 6.54 29.05 7.36L30.46 8.22C31.53 8.92 31.36 10.18 30.37 10.18C28.73 10.18 28.28 8.55 28.07 8.01L27.83 8.01L27.83 9.77C27.83 9.77 28.67 10.42 30.37 10.42C31.79 10.42 32.33 9.66 32.33 9.66C33.03 8.65 32.61 7.43 31.36 6.66Z"></path></g><defs data-v-fde0c5aa=""><!----></defs><g data-v-fde0c5aa="" id="eb309a34-f2aa-44ee-a7b1-fb4e35bd1a5b" stroke="none" fill="#D1A103" transform="matrix(0.7129475751389032,0,0,0.7129475751389032,40,116.13519268387361)"><path d="M41.09 0a8.957 8.957 0 00-2.045.213l4.22 4.008c.005 2.483-1.396 4.485-4.352 5.097l-4.831-3.823c-.085 2.088.742 3.784 1.725 5.415 1.653 2.288 4.222 2.58 4.91 2.708 1.064.338 2.125.658 2.947 1.433l.61.876c-3.863 1.475-7.958 3.326-11.413 6.211-.84.544-1.596 1.32-1.885 3.238-1.123 6.946-2.094 14.811-3.742 18.342C15.59 51.6 1.199 61.44.159 61.104L0 95c9.696-6.16 19.396-13.148 29.092-20.12 3.992-2.313 10.712-8.199 11.679-8.44 3.412-.798 6.246-1.739 8.547-2.814 1.854-.547 3.566-.793 5.945-2.39 6.366-3.106 11.385-7.337 13.67-9.396l4.752 6.955c.816 1.1.987 2.387 1.194 3.663a5.362 5.362 0 00.876 3.928c1.674 2.44 4.986 3.067 7.406 1.407 2.42-1.66 3.027-4.993 1.353-7.432a5.331 5.331 0 00-3.583-2.256c-.647-.472-1.3-1.007-2.256-2.31l-4.99-7.326c.409-.882.756-1.91.876-3.503.18-1.773-.748-3.31-2.894-4.566-3.274 1.443-5.987 2.518-10.803 4.99-.504.386-.804.777-1.088 1.168v.053c.391 2.938 1.769 4.675 4.061 5.415h.027l-.08.266-3.77-1.036-.026-.026-.053-.027c-1.588-2.336-5.684-5.014-9.741-7.67-.006-.004.005-.025 0-.027-1.83-.92-3.151-2.68-4.115-5.017-.965-2.34-1.576-5.24-1.99-8.494v-.026l-.425-1.965c.484-.304 2.492.24 3.265.372-1.127-2.04-1.409-3.772-1.248-5.309.175-1.663.865-3.106 1.54-4.539l.239.133c-.675 1.433-1.345 2.828-1.513 4.433-.16 1.53.158 3.25 1.353 5.335 2.925 2.623 5.118 3.817 8.972 3.557 1.359-.112 2.543-.497 3.238-1.354-.044-.971-.694-2.172-1.513-3.45h-.053c-1.451-3.878-3.101-7.1-4.565-11.096-.784-.799-1.677-1.482-2.946-1.698l-2.097-3.053c-.466-.563-.76-1.468-.425-3.69.318-2.051.11-3.74-.743-4.99-.447-.653-1.072-1.19-1.885-1.592C43.985.688 42.875.029 41.09 0zm15.288 15.423c-1.88.026-2.13.398-2.68.69 1.416 3.843 3.01 6.999 4.432 10.75 2.613-1.26 3.76-2.588 5.76-3.557.08-1.43-.095-2.614-.292-3.77-.36-2.184-4.143-3.82-5.84-4.087a23.055 23.055 0 00-1.38-.026zm7.539 8.175c-1.88.936-3.051 2.254-5.628 3.504.82 1.285 1.46 2.511 1.487 3.583v.053l-.027.027c-.76.976-2.034 1.37-3.45 1.486-1.235.102-2.572-.011-3.823-.133-.552.196-1.064.407-1.38.664-1.406 2.604 1.66 5.85 3.875 6.397 3.187-1.955 7.919-4.507 13.272-7.273 1.215-4.414-.466-6.993-4.326-8.202v-.106zm4.38 8.6c-5.278 2.728-9.926 5.208-13.087 7.14l-.026.053-.505 1.115c.046 1.108-.146 2.189.346 3.185.486.987 1.66 1.945 4.485 2.761.303-.42.633-.847 1.195-1.274v-.027h.026c4.786-2.457 7.495-3.542 10.724-4.963 2.36-5.542-.527-6.65-3.159-7.99zm12.66 27.234l.85.716 1.088.213.398 1.035.85.743-.186 1.088.372 1.062-.717.85-.212 1.114-1.062.372-.717.85-1.115-.186-1.061.371-.85-.716-1.088-.213-.398-1.035-.85-.743.186-1.089-.345-1.061.717-.876.186-1.088 1.061-.399.717-.822 1.115.185 1.062-.371zM76.41 44.622L52.898 10.129M45.815 12.176l25.252 36.793"></path></g><!----></svg>